{
  "accessors": [
    {
      "bufferView": 2,
      "componentType": 5126,
      "count": 51354,
      "max": [
        0.6591950058937073,
        1.8998359441757202,
        0.41607901453971863
      ],
      "min": [
        -0.6591950058937073,
        0.0,
        -0.4122070074081421
      ],
      "type": "VEC3"
    },
    {
      "bufferView": 2,
      "byteOffset": 616248,
      "componentType": 5126,
      "count": 51354,
      "max": [
        0.9999879002571106,
        0.9999991059303284,
        0.9999743103981018
      ],
      "min": [
        -0.9999879002571106,
        -0.999996542930603,
        -0.9999754428863525
      ],
      "type": "VEC3"
    },
    {
      "bufferView": 1,
      "componentType": 5126,
      "count": 51354,
      "max": [
        0.998009979724884,
        0.9992319941520691
      ],
      "min": [
        0.0007680000271648169,
        0.0007680000271648169
      ],
      "type": "VEC2"
    },
    {
      "bufferView": 1,
      "byteOffset": 410832,
      "componentType": 5126,
      "count": 51354,
      "max": [
        3.854153871536255,
        3.8588757514953613
      ],
      "min": [
        -2.8553760051727295,
        -2.8588757514953613
      ],
      "type": "VEC2"
    },
    {
      "bufferView": 0,
      "componentType": 5125,
      "count": 268092,
      "type": "SCALAR"
    }
  ],
  "asset": {
    "extras": {
      "author": "Eks.Art (https://sketchfab.com/Eks.Art)",
      "license": "CC-BY-4.0 (http://creativecommons.org/licenses/by/4.0/)",
      "source": "https://sketchfab.com/3d-models/brr-brr-patapim-2799fd1061e54acf8e5b2bdcdb0547df",
      "title": "Brr Brr Patapim"
    },
    "generator": "Sketchfab-16.64.0",
    "version": "2.0"
  },
  "bufferViews": [
    {
      "buffer": 0,
      "byteLength": 1072368,
      "name": "floatBufferViews",
      "target": 34963
    },
    {
      "buffer": 0,
      "byteLength": 821664,
      "byteOffset": 1072368,
      "byteStride": 8,
      "name": "floatBufferViews",
      "target": 34962
    },
    {
      "buffer": 0,
      "byteLength": 1232496,
      "byteOffset": 1894032,
      "byteStride": 12,
      "name": "floatBufferViews",
      "target": 34962
    }
  ],
  "buffers": [
    {
      "byteLength": 3126528,
      "uri": "scene.bin"
    }
  ],
  "images": [
    {
      "uri": "textures/Material.006_baseColor.png"
    }
  ],
  "materials": [
    {
      "doubleSided": true,
      "name": "Material.006",
      "pbrMetallicRoughness": {
        "baseColorTexture": {
          "index": 0
        },
        "metallicFactor": 0.0,
        "roughnessFactor": 0.9220629528216278
      }
    }
  ],
  "meshes": [
    {
      "name": "model.005_Material.006_0",
      "primitives": [
        {
          "attributes": {
            "NORMAL": 1,
            "POSITION": 0,
            "TEXCOORD_0": 2,
            "TEXCOORD_1": 3
          },
          "indices": 4,
          "material": 0,
          "mode": 4
        }
      ]
    }
  ],
  "nodes": [
    {
      "children": [
        1
      ],
      "matrix": [
        1.0,
        0.0,
        0.0,
        0.0,
        0.0,
        2.220446049250313e-16,
        -1.0,
        0.0,
        0.0,
        1.0,
        2.220446049250313e-16,
        0.0,
        0.0,
        0.0,
        0.0,
        1.0
      ],
      "name": "Sketchfab_model"
    },
    {
      "children": [
        2
      ],
      "matrix": [
        0.009999999776482582,
        0.0,
        0.0,
        0.0,
        0.0,
        0.0,
        0.009999999776482582,
        0.0,
        0.0,
        -0.009999999776482582,
        0.0,
        0.0,
        0.0,
        0.0,
        0.0,
        1.0
      ],
      "name": "9ad8929160524be495dd65e437012784.fbx"
    },
    {
      "children": [
        3
      ],
      "name": "RootNode"
    },
    {
      "children": [
        4
      ],
      "matrix": [
        941.9484252929688,
        0.0,
        0.0,
        0.0,
        0.0,
        941.9481201171866,
        4.1173860024405235e-05,
        0.0,
        0.0,
        -4.1173873364062304e-05,
        941.9484252929678,
        0.0,
        0.0,
        0.0,
        0.0,
        1.0
      ],
      "name": "model.005"
    },
    {
      "mesh": 0,
      "name": "model.005_Material.006_0"
    }
  ],
  "samplers": [
    {
      "magFilter": 9729,
      "minFilter": 9987,
      "wrapS": 10497,
      "wrapT": 10497
    }
  ],
  "scene": 0,
  "scenes": [
    {
      "name": "Sketchfab_Scene",
      "nodes": [
        0
      ]
    }
  ],
  "textures": [
    {
      "sampler": 0,
      "source": 0
    }
  ]
}
